<?xml version="1.0" encoding="UTF-8" standalone="no"?>
<!-- Created with Inkscape (http://www.inkscape.org/) -->

<svg
   xmlns:dc="http://purl.org/dc/elements/1.1/"
   xmlns:cc="http://creativecommons.org/ns#"
   xmlns:rdf="http://www.w3.org/1999/02/22-rdf-syntax-ns#"
   xmlns:svg="http://www.w3.org/2000/svg"
   xmlns="http://www.w3.org/2000/svg"
   xmlns:sodipodi="http://sodipodi.sourceforge.net/DTD/sodipodi-0.dtd"
   xmlns:inkscape="http://www.inkscape.org/namespaces/inkscape"
   width="744.09448819"
   height="1052.3622047"
   id="svg2985"
   version="1.1"
   inkscape:version="0.48.4 r9939"
   sodipodi:docname="STORYBOARD.svg">
  <defs
     id="defs2987" />
  <sodipodi:namedview
     id="base"
     pagecolor="#ffffff"
     bordercolor="#ffffff"
     borderopacity="0.0"
     inkscape:pageopacity="0.0"
     inkscape:pageshadow="0"
     inkscape:zoom="0.175"
     inkscape:cx="1076.4429"
     inkscape:cy="211.9616"
     inkscape:document-units="px"
     inkscape:current-layer="layer1"
     showgrid="false"
     showguides="true"
     inkscape:guide-bbox="true"
     inkscape:snap-grids="true"
     inkscape:snap-to-guides="true"
     inkscape:window-width="1440"
     inkscape:window-height="837"
     inkscape:window-x="-8"
     inkscape:window-y="-8"
     inkscape:window-maximized="1">
    <sodipodi:guide
       orientation="0,1"
       position="-400,2188.5714"
       id="guide3902" />
  </sodipodi:namedview>
  <metadata
     id="metadata2990">
    <rdf:RDF>
      <cc:Work
         rdf:about="">
        <dc:format>image/svg+xml</dc:format>
        <dc:type
           rdf:resource="http://purl.org/dc/dcmitype/StillImage" />
        <dc:title></dc:title>
      </cc:Work>
    </rdf:RDF>
  </metadata>
  <g
     inkscape:label="Layer 1"
     inkscape:groupmode="layer"
     id="layer1">
    <rect
       style="fill:none;fill-opacity:1;stroke:#000000;stroke-width:3.40000010000000020;stroke-linejoin:bevel;stroke-miterlimit:4;stroke-opacity:1;stroke-dasharray:none"
       id="rect2993"
       width="1517.1428"
       height="1077.1428"
       x="-1148.5714"
       y="-101.92353" />
    <path
       style="fill:#37abc8;stroke:#000000;stroke-width:2.40112638000000000;stroke-linecap:butt;stroke-linejoin:miter;stroke-miterlimit:4;stroke-opacity:1;stroke-dasharray:none"
       d="M -1148.5708,-51.797935 367.73403,-54.653952"
       id="path3765"
       inkscape:connector-curvature="0" />
    <path
       style="fill:none;stroke:#000000;stroke-width:1px;stroke-linecap:butt;stroke-linejoin:miter;stroke-opacity:1"
       d="m 305.57115,-100.72695 c 0.50507,45.456866 0.50507,45.456866 0.50507,45.456866"
       id="path3767"
       inkscape:connector-curvature="0" />
    <path
       style="fill:none;stroke:#000000;stroke-width:1.01407242px;stroke-linecap:butt;stroke-linejoin:miter;stroke-opacity:1"
       d="m 246.96903,-101.20468 0.491,45.947865"
       id="path3769"
       inkscape:connector-curvature="0" />
    <path
       style="fill:none;stroke:#000000;stroke-width:1px;stroke-linecap:butt;stroke-linejoin:miter;stroke-opacity:1"
       d="m 190.97975,-101.23202 0.50507,46.467012"
       id="path3771"
       inkscape:connector-curvature="0" />
    <path
       style="fill:none;stroke:#000000;stroke-width:2.002;stroke-linecap:butt;stroke-linejoin:miter;stroke-opacity:1;stroke-miterlimit:4;stroke-dasharray:none"
       d="m 352.03816,-86.079737 -20.70812,18.182746"
       id="path3773"
       inkscape:connector-curvature="0" />
    <path
       style="fill:none;stroke:#000000;stroke-width:2.056;stroke-linecap:butt;stroke-linejoin:miter;stroke-opacity:1;stroke-miterlimit:4;stroke-dasharray:none"
       d="m 331.86215,-85.547619 19.13881,17.623587"
       id="path3775"
       inkscape:connector-curvature="0" />
    <rect
       style="fill:none;stroke:#000000;stroke-width:2.4000001;stroke-linejoin:bevel;stroke-miterlimit:4;stroke-opacity:1;stroke-dasharray:none"
       id="rect3779"
       width="27.779196"
       height="23.233509"
       x="260.61935"
       y="-90.079735" />
    <path
       style="fill:none;stroke:#000000;stroke-width:2.6;stroke-linecap:butt;stroke-linejoin:miter;stroke-opacity:1;stroke-miterlimit:4;stroke-dasharray:none"
       d="m 202.03051,-76.483287 30.80965,0"
       id="path3781"
       inkscape:connector-curvature="0" />
    <path
       style="fill:#ff8080;fill-opacity:1;stroke:#000000;stroke-width:1.01116275999999990;stroke-linejoin:bevel;stroke-miterlimit:4;stroke-opacity:1;stroke-dasharray:none"
       d="m 306.80185,-62.842335 c -0.18196,-3.794114 -0.33084,-13.680982 -0.33084,-21.970818 l 0,-15.07243 30.05204,0 30.05203,0 0,21.970818 0,21.970818 -29.72119,0 -29.7212,0 -0.33084,-6.898388 z m 29.91879,-8.015969 c 2.33101,-2.075406 4.42379,-3.773465 4.65063,-3.773465 0.22684,0 2.2352,1.704632 4.46302,3.788072 2.22783,2.083439 4.25516,3.788072 4.50517,3.788072 0.25001,0 0.76151,-0.369839 1.13666,-0.821864 0.60022,-0.723218 0.15557,-1.303706 -3.7045,-4.83629 l -4.38658,-4.014426 4.65022,-4.071212 c 2.55763,-2.239166 4.74353,-4.15256 4.85758,-4.251986 0.11404,-0.09943 -0.20146,-0.63251 -0.70113,-1.18463 -0.89628,-0.990381 -0.96347,-0.95516 -5.00557,2.624065 -2.25341,1.995357 -4.48685,3.951032 -4.96321,4.345945 -0.77903,0.645836 -1.30758,0.304976 -5.2573,-3.390416 -4.26007,-3.985757 -4.42075,-4.081877 -5.38111,-3.218916 -0.96871,0.870462 -0.8958,0.977043 3.40243,4.974007 l 4.39236,4.084484 -4.49157,4.031727 c -3.75077,3.36678 -4.40325,4.171734 -3.95609,4.88062 0.29451,0.466891 0.76391,0.842318 1.04313,0.834285 0.27921,-0.008 2.41485,-1.712667 4.74586,-3.788072 l 0,0 z"
       id="path3783"
       inkscape:connector-curvature="0" />
    <text
       xml:space="preserve"
       style="font-size:40px;font-style:normal;font-weight:normal;line-height:125%;letter-spacing:0px;word-spacing:0px;fill:#000000;fill-opacity:1;stroke:none;font-family:Sans"
       x="-1059.65"
       y="-62.846226"
       id="text3785"
       sodipodi:linespacing="125%"><tspan
         sodipodi:role="line"
         id="tspan3787"
         x="-1059.65"
         y="-62.846226">TPV ESTANCO </tspan></text>
    <path
       style="fill:none;stroke:#000000;stroke-width:2.00133777;stroke-linecap:butt;stroke-linejoin:miter;stroke-miterlimit:4;stroke-opacity:1;stroke-dasharray:none"
       d="M -1149.5529,92.716596 366.68471,90.697629"
       id="path3789"
       inkscape:connector-curvature="0" />
    <path
       style="fill:none;stroke:#000000;stroke-width:1px;stroke-linecap:butt;stroke-linejoin:miter;stroke-opacity:1"
       d="m -952.57385,-50.724397 1.01015,141.421356"
       id="path3791"
       inkscape:connector-curvature="0" />
    <path
       style="fill:none;stroke:#000000;stroke-width:1px;stroke-linecap:butt;stroke-linejoin:miter;stroke-opacity:1"
       d="m -758.62456,91.707112 2.0203,-144.451814"
       id="path3793"
       inkscape:connector-curvature="0" />
    <text
       xml:space="preserve"
       style="font-size:40px;font-style:normal;font-weight:normal;line-height:125%;letter-spacing:0px;word-spacing:0px;fill:#000000;fill-opacity:1;stroke:none;font-family:Sans"
       x="-1111.1678"
       y="70.493912"
       id="text3795"
       sodipodi:linespacing="125%"><tspan
         sodipodi:role="line"
         id="tspan3797"
         x="-1111.1678"
         y="70.493912">VENTA</tspan></text>
    <text
       xml:space="preserve"
       style="font-size:40px;font-style:normal;font-weight:normal;line-height:125%;letter-spacing:0px;word-spacing:0px;fill:#000000;fill-opacity:1;stroke:none;font-family:Sans"
       x="-932.37079"
       y="74.534523"
       id="text3799"
       sodipodi:linespacing="125%"><tspan
         sodipodi:role="line"
         id="tspan3801"
         x="-932.37079"
         y="74.534523">STOCK</tspan></text>
    <rect
       style="fill:none;stroke:#000000;stroke-width:3.4000001;stroke-linejoin:bevel;stroke-miterlimit:4;stroke-opacity:1;stroke-dasharray:none"
       id="rect2993-1"
       width="1517.1428"
       height="1077.1428"
       x="789.12329"
       y="-97.882889" />
    <path
       style="fill:#37abc8;stroke:#000000;stroke-width:2.40112638;stroke-linecap:butt;stroke-linejoin:miter;stroke-miterlimit:4;stroke-opacity:1;stroke-dasharray:none"
       d="m 789.12398,-47.757313 1516.30492,-2.85602"
       id="path3765-7"
       inkscape:connector-curvature="0" />
    <path
       style="fill:none;stroke:#000000;stroke-width:1px;stroke-linecap:butt;stroke-linejoin:miter;stroke-opacity:1"
       d="m 2243.266,-96.686336 c 0.5051,45.456873 0.5051,45.456873 0.5051,45.456873"
       id="path3767-4"
       inkscape:connector-curvature="0" />
    <path
       style="fill:none;stroke:#000000;stroke-width:1.01407242px;stroke-linecap:butt;stroke-linejoin:miter;stroke-opacity:1"
       d="m 2184.6639,-97.164066 0.491,45.947873"
       id="path3769-0"
       inkscape:connector-curvature="0" />
    <path
       style="fill:none;stroke:#000000;stroke-width:1px;stroke-linecap:butt;stroke-linejoin:miter;stroke-opacity:1"
       d="m 2128.6746,-97.191406 0.5051,46.467013"
       id="path3771-9"
       inkscape:connector-curvature="0" />
    <path
       style="fill:none;stroke:#000000;stroke-width:2.00200009;stroke-linecap:butt;stroke-linejoin:miter;stroke-miterlimit:4;stroke-opacity:1;stroke-dasharray:none"
       d="m 2289.733,-82.039113 -20.7081,18.18274"
       id="path3773-4"
       inkscape:connector-curvature="0" />
    <path
       style="fill:none;stroke:#000000;stroke-width:2.05599999;stroke-linecap:butt;stroke-linejoin:miter;stroke-miterlimit:4;stroke-opacity:1;stroke-dasharray:none"
       d="m 2269.557,-81.507003 19.1388,17.62359"
       id="path3775-8"
       inkscape:connector-curvature="0" />
    <rect
       style="fill:none;stroke:#000000;stroke-width:2.4000001;stroke-linejoin:bevel;stroke-miterlimit:4;stroke-opacity:1;stroke-dasharray:none"
       id="rect3779-8"
       width="27.779196"
       height="23.233509"
       x="2198.314"
       y="-86.039131" />
    <path
       style="fill:none;stroke:#000000;stroke-width:2.5999999;stroke-linecap:butt;stroke-linejoin:miter;stroke-miterlimit:4;stroke-opacity:1;stroke-dasharray:none"
       d="m 2139.7254,-72.442663 30.8096,0"
       id="path3781-2"
       inkscape:connector-curvature="0" />
    <path
       style="fill:#ff8080;fill-opacity:1;stroke:#000000;stroke-width:1.01116276;stroke-linejoin:bevel;stroke-miterlimit:4;stroke-opacity:1;stroke-dasharray:none"
       d="m 2244.4967,-58.801713 c -0.1819,-3.79412 -0.3308,-13.68098 -0.3308,-21.97082 l 0,-15.072433 30.052,0 30.052,0 0,21.970823 0,21.97082 -29.7211,0 -29.7212,0 -0.3309,-6.89839 z m 29.9188,-8.01597 c 2.331,-2.07541 4.4238,-3.77347 4.6506,-3.77347 0.2269,0 2.2352,1.70464 4.4631,3.78808 2.2278,2.08343 4.2551,3.78807 4.5051,3.78807 0.25,0 0.7615,-0.36984 1.1367,-0.82187 0.6002,-0.72321 0.1556,-1.3037 -3.7045,-4.83629 l -4.3866,-4.01442 4.6502,-4.07121 c 2.5577,-2.23917 4.7436,-4.15256 4.8576,-4.25199 0.114,-0.0994 -0.2015,-0.63251 -0.7011,-1.18463 -0.8963,-0.99038 -0.9635,-0.95516 -5.0056,2.62406 -2.2534,1.99536 -4.4868,3.95104 -4.9632,4.34595 -0.779,0.64584 -1.3076,0.30498 -5.2573,-3.39042 -4.2601,-3.98575 -4.4208,-4.08187 -5.3811,-3.21891 -0.9687,0.87046 -0.8958,0.97704 3.4024,4.974 l 4.3924,4.08449 -4.4916,4.03173 c -3.7508,3.36678 -4.4032,4.17173 -3.9561,4.88062 0.2945,0.46689 0.7639,0.84231 1.0431,0.83428 0.2793,-0.008 2.4149,-1.71267 4.7459,-3.78807 l 0,0 z"
       id="path3783-4"
       inkscape:connector-curvature="0" />
    <text
       xml:space="preserve"
       style="font-size:40px;font-style:normal;font-weight:normal;line-height:125%;letter-spacing:0px;word-spacing:0px;fill:#000000;fill-opacity:1;stroke:none;font-family:Sans"
       x="878.04468"
       y="-58.805618"
       id="text3785-5"
       sodipodi:linespacing="125%"><tspan
         sodipodi:role="line"
         id="tspan3787-5"
         x="878.04468"
         y="-58.805618">TPV ESTANCO </tspan></text>
    <path
       style="fill:none;stroke:#000000;stroke-width:2.00133777;stroke-linecap:butt;stroke-linejoin:miter;stroke-miterlimit:4;stroke-opacity:1;stroke-dasharray:none"
       d="M 788.14188,96.757215 2304.3796,94.738245"
       id="path3789-1"
       inkscape:connector-curvature="0" />
    <path
       style="fill:none;stroke:#000000;stroke-width:1px;stroke-linecap:butt;stroke-linejoin:miter;stroke-opacity:1"
       d="m 985.12088,-46.683773 1.0102,141.421348"
       id="path3791-7"
       inkscape:connector-curvature="0" />
    <path
       style="fill:none;stroke:#000000;stroke-width:1px;stroke-linecap:butt;stroke-linejoin:miter;stroke-opacity:1"
       d="m 1179.0702,95.747725 2.0203,-144.451808"
       id="path3793-1"
       inkscape:connector-curvature="0" />
    <text
       xml:space="preserve"
       style="font-size:40px;font-style:normal;font-weight:normal;line-height:125%;letter-spacing:0px;word-spacing:0px;fill:#000000;fill-opacity:1;stroke:none;font-family:Sans"
       x="826.52686"
       y="74.534546"
       id="text3795-1"
       sodipodi:linespacing="125%"><tspan
         sodipodi:role="line"
         id="tspan3797-5"
         x="826.52686"
         y="74.534546">VENTA</tspan></text>
    <text
       xml:space="preserve"
       style="font-size:40px;font-style:normal;font-weight:normal;line-height:125%;letter-spacing:0px;word-spacing:0px;fill:#000000;fill-opacity:1;stroke:none;font-family:Sans"
       x="1005.324"
       y="78.575134"
       id="text3799-2"
       sodipodi:linespacing="125%"><tspan
         sodipodi:role="line"
         id="tspan3801-7"
         x="1005.324"
         y="78.575134">STOCK</tspan></text>
    <rect
       style="fill:none;fill-opacity:1;stroke:#000000;stroke-width:2;stroke-linejoin:bevel;stroke-miterlimit:4;stroke-opacity:1;stroke-dasharray:none"
       id="rect3803-6"
       width="890.95453"
       height="391.93918"
       x="826.52686"
       y="195.77319" />
    <rect
       style="fill:none;stroke:#000000;stroke-width:2.00483656;stroke-linejoin:bevel;stroke-miterlimit:4;stroke-opacity:1;stroke-dasharray:none"
       id="rect3805-1"
       width="397.99524"
       height="391.8118"
       x="1848.8038"
       y="193.67328" />
    <rect
       style="fill:none;fill-opacity:1;stroke:#000000;stroke-width:1.99759865000000000;stroke-linejoin:bevel;stroke-miterlimit:4;stroke-opacity:1;stroke-dasharray:none"
       id="rect3807-4"
       width="1420.2769"
       height="301.02789"
       x="826.5459"
       y="656.38123" />
    <rect
       style="fill:none;stroke:#000000;stroke-width:3.4000001;stroke-linejoin:bevel;stroke-miterlimit:4;stroke-opacity:1;stroke-dasharray:none"
       id="rect2993-2"
       width="1517.1428"
       height="1077.1428"
       x="-1150.5917"
       y="1091.598" />
    <path
       style="fill:#37abc8;stroke:#000000;stroke-width:2.40112638;stroke-linecap:butt;stroke-linejoin:miter;stroke-miterlimit:4;stroke-opacity:1;stroke-dasharray:none"
       d="m -1150.5911,1141.7236 1516.30493,-2.856"
       id="path3765-3"
       inkscape:connector-curvature="0" />
    <path
       style="fill:none;stroke:#000000;stroke-width:1px;stroke-linecap:butt;stroke-linejoin:miter;stroke-opacity:1"
       d="m 303.55088,1092.7946 c 0.5051,45.4569 0.5051,45.4569 0.5051,45.4569"
       id="path3767-2"
       inkscape:connector-curvature="0" />
    <path
       style="fill:none;stroke:#000000;stroke-width:1.01407242px;stroke-linecap:butt;stroke-linejoin:miter;stroke-opacity:1"
       d="m 244.94878,1092.3169 0.491,45.9478"
       id="path3769-2"
       inkscape:connector-curvature="0" />
    <path
       style="fill:none;stroke:#000000;stroke-width:1px;stroke-linecap:butt;stroke-linejoin:miter;stroke-opacity:1"
       d="m 188.95948,1092.2895 0.5051,46.467"
       id="path3771-1"
       inkscape:connector-curvature="0" />
    <path
       style="fill:none;stroke:#000000;stroke-width:2.00200009;stroke-linecap:butt;stroke-linejoin:miter;stroke-miterlimit:4;stroke-opacity:1;stroke-dasharray:none"
       d="m 350.01793,1107.4418 -20.7081,18.1828"
       id="path3773-6"
       inkscape:connector-curvature="0" />
    <path
       style="fill:none;stroke:#000000;stroke-width:2.05599999;stroke-linecap:butt;stroke-linejoin:miter;stroke-miterlimit:4;stroke-opacity:1;stroke-dasharray:none"
       d="m 329.84193,1107.9739 19.1388,17.6236"
       id="path3775-85"
       inkscape:connector-curvature="0" />
    <rect
       style="fill:none;stroke:#000000;stroke-width:2.4000001;stroke-linejoin:bevel;stroke-miterlimit:4;stroke-opacity:1;stroke-dasharray:none"
       id="rect3779-7"
       width="27.779196"
       height="23.233509"
       x="258.59915"
       y="1103.4418" />
    <path
       style="fill:none;stroke:#000000;stroke-width:2.5999999;stroke-linecap:butt;stroke-linejoin:miter;stroke-miterlimit:4;stroke-opacity:1;stroke-dasharray:none"
       d="m 200.01028,1117.0383 30.8096,0"
       id="path3781-6"
       inkscape:connector-curvature="0" />
    <path
       style="fill:#ff8080;fill-opacity:1;stroke:#000000;stroke-width:1.01116276;stroke-linejoin:bevel;stroke-miterlimit:4;stroke-opacity:1;stroke-dasharray:none"
       d="m 304.78158,1130.6792 c -0.1819,-3.7941 -0.3308,-13.681 -0.3308,-21.9708 l 0,-15.0724 30.05205,0 30.052,0 0,21.9708 0,21.9708 -29.7211,0 -29.72125,0 -0.3309,-6.8984 z m 29.91885,-8.016 c 2.331,-2.0754 4.4238,-3.7734 4.6506,-3.7734 0.2269,0 2.2352,1.7046 4.4631,3.7881 2.2278,2.0834 4.2551,3.788 4.5051,3.788 0.25,0 0.7615,-0.3698 1.1367,-0.8218 0.6002,-0.7233 0.1556,-1.3037 -3.7045,-4.8363 l -4.3866,-4.0145 4.6502,-4.0712 c 2.5577,-2.2391 4.7436,-4.1525 4.8576,-4.2519 0.114,-0.099 -0.2015,-0.6326 -0.7011,-1.1847 -0.8963,-0.9904 -0.9635,-0.9551 -5.0056,2.6241 -2.2534,1.9953 -4.4868,3.951 -4.9632,4.3459 -0.779,0.6459 -1.3076,0.305 -5.2573,-3.3904 -4.2601,-3.9857 -4.4208,-4.0819 -5.3811,-3.2189 -0.9687,0.8705 -0.8958,0.977 3.4024,4.974 l 4.3924,4.0845 -4.4916,4.0317 c -3.7508,3.3668 -4.4032,4.1718 -3.9561,4.8806 0.2945,0.4669 0.7639,0.8424 1.0431,0.8343 0.2793,-0.01 2.4149,-1.7126 4.7459,-3.7881 l 0,0 z"
       id="path3783-1"
       inkscape:connector-curvature="0" />
    <text
       xml:space="preserve"
       style="font-size:40px;font-style:normal;font-weight:normal;line-height:125%;letter-spacing:0px;word-spacing:0px;fill:#000000;fill-opacity:1;stroke:none;font-family:Sans"
       x="-1061.6703"
       y="1130.6753"
       id="text3785-8"
       sodipodi:linespacing="125%"><tspan
         sodipodi:role="line"
         id="tspan3787-9"
         x="-1061.6703"
         y="1130.6753">TPV ESTANCO </tspan></text>
    <path
       style="fill:none;stroke:#000000;stroke-width:2.00133777;stroke-linecap:butt;stroke-linejoin:miter;stroke-miterlimit:4;stroke-opacity:1;stroke-dasharray:none"
       d="m -1151.5732,1286.2382 1516.23773,-2.019"
       id="path3789-2"
       inkscape:connector-curvature="0" />
    <path
       style="fill:none;stroke:#000000;stroke-width:1px;stroke-linecap:butt;stroke-linejoin:miter;stroke-opacity:1"
       d="m -954.5941,1142.7972 1.01015,141.4213"
       id="path3791-79"
       inkscape:connector-curvature="0" />
    <path
       style="fill:none;stroke:#000000;stroke-width:1px;stroke-linecap:butt;stroke-linejoin:miter;stroke-opacity:1"
       d="m -760.64481,1285.2287 2.0203,-144.4518"
       id="path3793-5"
       inkscape:connector-curvature="0" />
    <text
       xml:space="preserve"
       style="font-size:40px;font-style:normal;font-weight:normal;line-height:125%;letter-spacing:0px;word-spacing:0px;fill:#000000;fill-opacity:1;stroke:none;font-family:Sans"
       x="-1113.1881"
       y="1264.0155"
       id="text3795-4"
       sodipodi:linespacing="125%"><tspan
         sodipodi:role="line"
         id="tspan3797-3"
         x="-1113.1881"
         y="1264.0155">VENTA</tspan></text>
    <text
       xml:space="preserve"
       style="font-size:40px;font-style:normal;font-weight:normal;line-height:125%;letter-spacing:0px;word-spacing:0px;fill:#000000;fill-opacity:1;stroke:none;font-family:Sans"
       x="-934.39105"
       y="1268.056"
       id="text3799-1"
       sodipodi:linespacing="125%"><tspan
         sodipodi:role="line"
         id="tspan3801-2"
         x="-934.39105"
         y="1268.056">STOCK</tspan></text>
    <rect
       style="fill:#ff8080;fill-opacity:1;stroke:#000000;stroke-width:2;stroke-linejoin:bevel;stroke-miterlimit:4;stroke-opacity:1;stroke-dasharray:none"
       id="rect3803-3"
       width="890.95453"
       height="391.93918"
       x="-1113.1881"
       y="1387.254" />
    <rect
       style="fill:#ff8080;fill-opacity:1;stroke:#000000;stroke-width:2.01028371;stroke-linejoin:bevel;stroke-miterlimit:4;stroke-opacity:1;stroke-dasharray:none"
       id="rect3805-3"
       width="397.98981"
       height="393.94922"
       x="-90.908531"
       y="1385.2998" />
    <rect
       style="fill:#ff8080;fill-opacity:1;stroke:#000000;stroke-width:1.99759865;stroke-linejoin:bevel;stroke-miterlimit:4;stroke-opacity:1;stroke-dasharray:none"
       id="rect3807-41"
       width="1420.2769"
       height="301.02789"
       x="-1113.1691"
       y="1845.8622" />
    <path
       style="fill:none;stroke:#000000;stroke-width:2.60233068;stroke-linecap:butt;stroke-linejoin:miter;stroke-miterlimit:4;stroke-opacity:1;stroke-dasharray:none"
       d="m 828.11109,481.8299 890.35211,-3.43828"
       id="path3953-3-9"
       inkscape:connector-curvature="0" />
    <path
       style="fill:none;stroke:#000000;stroke-width:2.60233068;stroke-linecap:butt;stroke-linejoin:miter;stroke-miterlimit:4;stroke-opacity:1;stroke-dasharray:none"
       d="m 827.61611,450.0101 890.35209,-3.43828"
       id="path3953-3-9-3"
       inkscape:connector-curvature="0" />
    <path
       style="fill:none;stroke:#000000;stroke-width:2.60233068;stroke-linecap:butt;stroke-linejoin:miter;stroke-miterlimit:4;stroke-opacity:1;stroke-dasharray:none"
       d="m 827.61615,411.6243 890.35215,-3.43828"
       id="path3953-3-9-1"
       inkscape:connector-curvature="0" />
    <path
       style="fill:none;stroke:#000000;stroke-width:2.60233068;stroke-linecap:butt;stroke-linejoin:miter;stroke-miterlimit:4;stroke-opacity:1;stroke-dasharray:none"
       d="M 825.59587,373.2385 1715.948,369.80022"
       id="path3953-3-9-9"
       inkscape:connector-curvature="0" />
    <path
       style="fill:none;stroke:#000000;stroke-width:2.60233068;stroke-linecap:butt;stroke-linejoin:miter;stroke-miterlimit:4;stroke-opacity:1;stroke-dasharray:none"
       d="m 823.57554,336.83241 890.35206,-3.43828"
       id="path3953-3-9-8"
       inkscape:connector-curvature="0" />
    <path
       style="fill:none;stroke:#000000;stroke-width:2.60233068;stroke-linecap:butt;stroke-linejoin:miter;stroke-miterlimit:4;stroke-opacity:1;stroke-dasharray:none"
       d="M 825.59587,302.48722 1715.948,299.04894"
       id="path3953-3-9-6"
       inkscape:connector-curvature="0" />
    <path
       style="fill:none;stroke:#000000;stroke-width:2.60233068;stroke-linecap:butt;stroke-linejoin:miter;stroke-miterlimit:4;stroke-opacity:1;stroke-dasharray:none"
       d="m 827.61619,233.83746 890.35211,-3.43828"
       id="path3953-3-9-5"
       inkscape:connector-curvature="0" />
    <path
       style="fill:none;stroke:#000000;stroke-width:2.60233068;stroke-linecap:butt;stroke-linejoin:miter;stroke-miterlimit:4;stroke-opacity:1;stroke-dasharray:none"
       d="M 825.59588,268.18264 1715.948,264.74436"
       id="path3953-3-9-0"
       inkscape:connector-curvature="0" />
    <rect
       style="fill:#808080;stroke:#000000;stroke-width:2;stroke-linejoin:bevel;stroke-miterlimit:4;stroke-opacity:1;stroke-dasharray:none"
       id="rect4075"
       width="890.95453"
       height="40.406105"
       x="828.32507"
       y="191.7122" />
    <path
       style="fill:none;stroke:#000000;stroke-width:1px;stroke-linecap:butt;stroke-linejoin:miter;stroke-opacity:1"
       d="m 1010.1525,191.71221 c -4.0406,393.95949 -4.0406,393.95949 -4.0406,393.95949"
       id="path4077"
       inkscape:connector-curvature="0" />
    <path
       style="fill:none;stroke:#000000;stroke-width:1px;stroke-linecap:butt;stroke-linejoin:miter;stroke-opacity:1"
       d="m 1216.2237,191.71221 c -4.0406,393.95949 -2.0203,393.95949 -2.0203,393.95949"
       id="path4079"
       inkscape:connector-curvature="0" />
    <path
       style="fill:none;stroke:#000000;stroke-width:1px;stroke-linecap:butt;stroke-linejoin:miter;stroke-opacity:1"
       d="m 1436.4369,191.71221 c 0,393.95949 -2.0203,393.95949 -2.0203,393.95949"
       id="path4081"
       inkscape:connector-curvature="0" />
    <path
       style="fill:none;stroke:#000000;stroke-width:1px;stroke-linecap:butt;stroke-linejoin:miter;stroke-opacity:1"
       d="M 1950.7143,191.71221 1950,585.6717"
       id="path4093"
       inkscape:connector-curvature="0" />
    <path
       style="fill:none;stroke:#000000;stroke-width:1px;stroke-linecap:butt;stroke-linejoin:miter;stroke-opacity:1"
       d="m 2050,191.71221 0.7143,393.95949"
       id="path4095"
       inkscape:connector-curvature="0" />
    <path
       style="fill:none;stroke:#000000;stroke-width:1px;stroke-linecap:butt;stroke-linejoin:miter;stroke-opacity:1"
       d="m 2150,191.71221 2.1429,393.95949"
       id="path4097"
       inkscape:connector-curvature="0" />
    <path
       style="fill:none;stroke:#000000;stroke-width:1px;stroke-linecap:butt;stroke-linejoin:miter;stroke-opacity:1"
       d="m 1848.5714,302.36218 399.2857,-0.71428"
       id="path4099"
       inkscape:connector-curvature="0" />
    <path
       style="fill:none;stroke:#000000;stroke-width:1px;stroke-linecap:butt;stroke-linejoin:miter;stroke-opacity:1"
       d="m 1846.9262,409.25215 399.2857,-0.71428"
       id="path4099-2"
       inkscape:connector-curvature="0" />
    <path
       style="fill:none;stroke:#000000;stroke-width:1px;stroke-linecap:butt;stroke-linejoin:miter;stroke-opacity:1"
       d="m 1848.9466,502.18619 399.2857,-0.71428"
       id="path4099-8"
       inkscape:connector-curvature="0" />
  </g>
</svg>
